<svg width="1200" height="300" viewBox="0 0 1200 300" fill="none" xmlns="http://www.w3.org/2000/svg">
  <defs>
    <linearGradient id="bg" x1="0" y1="0" x2="1200" y2="300" gradientUnits="userSpaceOnUse">
      <stop stop-color="#020617"/>
      <stop offset="0.45" stop-color="#0b2a1d"/>
      <stop offset="1" stop-color="#07111f"/>
    </linearGradient>
    <radialGradient id="green" cx="0" cy="0" r="1" gradientUnits="userSpaceOnUse" gradientTransform="translate(915 84) rotate(153) scale(460 260)">
      <stop stop-color="#22c55e" stop-opacity="0.58"/>
      <stop offset="1" stop-color="#22c55e" stop-opacity="0"/>
    </radialGradient>
    <radialGradient id="blue" cx="0" cy="0" r="1" gradientUnits="userSpaceOnUse" gradientTransform="translate(180 245) rotate(-25) scale(310 160)">
      <stop stop-color="#2563eb" stop-opacity="0.38"/>
      <stop offset="1" stop-color="#2563eb" stop-opacity="0"/>
    </radialGradient>
  </defs>
  <rect width="1200" height="300" rx="32" fill="url(#bg)"/>
  <rect width="1200" height="300" rx="32" fill="url(#green)"/>
  <rect width="1200" height="300" rx="32" fill="url(#blue)"/>
  <g opacity="0.12">
    <path d="M78 65H1122" stroke="#dcfce7"/>
    <path d="M78 235H1122" stroke="#dcfce7"/>
    <path d="M168 34V266" stroke="#dcfce7"/>
    <path d="M1040 34V266" stroke="#dcfce7"/>
    <path d="M0 204C136 174 250 182 371 207C520 239 627 258 790 215C937 176 1051 151 1200 181" stroke="#dcfce7" stroke-width="2"/>
  </g>
  <g transform="translate(86 58)">
    <rect width="566" height="184" rx="24" fill="#020617" fill-opacity="0.42" stroke="#34d399" stroke-opacity="0.34"/>
    <text x="34" y="65" fill="#f8fafc" font-family="Segoe UI, Inter, Arial, sans-serif" font-size="76" font-weight="850" letter-spacing="-2">Jan1k</text>
    <text x="38" y="107" fill="#bbf7d0" font-family="Segoe UI, Inter, Arial, sans-serif" font-size="22" font-weight="750" letter-spacing="2">CONFIGURATOR / OPTIMIZER / DEVELOPER</text>
    <text x="38" y="151" fill="#cbd5e1" font-family="Segoe UI, Inter, Arial, sans-serif" font-size="27" font-weight="520">Paper, Velocity, Discord bots, lag fixes</text>
  </g>
  <g transform="translate(730 50)">
    <rect x="0" y="0" width="355" height="200" rx="24" fill="#020617" fill-opacity="0.68" stroke="#22c55e" stroke-opacity="0.5"/>
    <text x="30" y="48" fill="#86efac" font-family="Consolas, SFMono-Regular, monospace" font-size="17" font-weight="700">$ stabilize server</text>
    <text x="30" y="89" fill="#f8fafc" font-family="Consolas, SFMono-Regular, monospace" font-size="26" font-weight="800">5 TPS to 20 TPS</text>
    <text x="30" y="128" fill="#cbd5e1" font-family="Consolas, SFMono-Regular, monospace" font-size="18">300+ players online</text>
    <text x="30" y="162" fill="#93c5fd" font-family="Consolas, SFMono-Regular, monospace" font-size="18">Java / Kotlin / Node.js</text>
  </g>
</svg>
